<svg viewBox="2 2 20 22" fill="none" style="fill: none">
  <path clip-rule="evenodd"
    d="M18.1 5.00016H6.9C6.53425 4.99455 6.18126 5.13448 5.9187 5.38917C5.65614 5.64385 5.50553 5.99242 5.5 6.35816V14.5002C5.50553 14.8659 5.65614 15.2145 5.9187 15.4692C6.18126 15.7238 6.53425 15.8638 6.9 15.8582H10.77C10.9881 15.857 11.2035 15.9056 11.4 16.0002L17.051 19.0002L17 14.5002H18.43C19.0106 14.5091 19.4891 14.0467 19.5 13.4662V6.35816C19.4945 5.99242 19.3439 5.64385 19.0813 5.38917C18.8187 5.13448 18.4657 4.99455 18.1 5.00016Z"
    stroke="currentColor" stroke-width="1.5" stroke-linecap="round" stroke-linejoin="round" fill="none" />
  <path
    d="M8.5 8.25024C8.08579 8.25024 7.75 8.58603 7.75 9.00024C7.75 9.41446 8.08579 9.75024 8.5 9.75024V8.25024ZM16.5 9.75024C16.9142 9.75024 17.25 9.41446 17.25 9.00024C17.25 8.58603 16.9142 8.25024 16.5 8.25024V9.75024ZM8.5 11.2502C8.08579 11.2502 7.75 11.586 7.75 12.0002C7.75 12.4145 8.08579 12.7502 8.5 12.7502V11.2502ZM14.5 12.7502C14.9142 12.7502 15.25 12.4145 15.25 12.0002C15.25 11.586 14.9142 11.2502 14.5 11.2502V12.7502ZM8.5 9.75024H16.5V8.25024H8.5V9.75024ZM8.5 12.7502H14.5V11.2502H8.5V12.7502Z"
    fill="currentColor" />
</svg>